<svg width="208" height="151" viewBox="0 0 208 151" fill="none" xmlns="http://www.w3.org/2000/svg">
<path d="M133.235 17.2712V12.3366C133.235 5.52433 127.713 0 120.899 0H86.3562C79.5439 0 74.0196 5.52433 74.0196 12.3366V17.2712H98.6928V22.2059H74.0196V37.0098H83.8889V41.9444H74.0196V46.8791C74.0196 53.6914 79.5439 59.2157 86.3562 59.2157H120.899C127.713 59.2157 133.235 53.6914 133.235 46.8791V41.9444H113.497V37.0098H133.235V22.2059H120.899V17.2712H133.235ZM93.7582 44.4118C93.7582 45.7737 92.6553 46.8791 91.2909 46.8791C89.9264 46.8791 88.8235 45.7737 88.8235 44.4118V34.5425C88.8235 33.1805 89.9264 32.0752 91.2909 32.0752C92.6553 32.0752 93.7582 33.1805 93.7582 34.5425V44.4118ZM101.16 44.4118C101.16 45.7737 100.057 46.8791 98.6928 46.8791C97.3284 46.8791 96.2255 45.7737 96.2255 44.4118V34.5425C96.2255 33.1805 97.3284 32.0752 98.6928 32.0752C100.057 32.0752 101.16 33.1805 101.16 34.5425V44.4118ZM108.562 44.4118C108.562 45.7737 107.459 46.8791 106.095 46.8791C104.73 46.8791 103.627 45.7737 103.627 44.4118V34.5425C103.627 33.1805 104.73 32.0752 106.095 32.0752C107.459 32.0752 108.562 33.1805 108.562 34.5425V44.4118ZM108.562 24.6732C108.562 26.0352 107.459 27.1405 106.095 27.1405C104.73 27.1405 103.627 26.0352 103.627 24.6732V14.8039C103.627 13.442 104.73 12.3366 106.095 12.3366C107.459 12.3366 108.562 13.442 108.562 14.8039V24.6732ZM115.964 24.6732C115.964 26.0352 114.861 27.1405 113.497 27.1405C112.132 27.1405 111.029 26.0352 111.029 24.6732V14.8039C111.029 13.442 112.132 12.3366 113.497 12.3366C114.861 12.3366 115.964 13.442 115.964 14.8039V24.6732Z" fill="white"/>
<path d="M28.4235 136.33C24.7324 136.33 21.2486 135.678 17.972 134.376C14.6954 133.053 11.8037 131.237 9.29686 128.928C6.79007 126.599 4.82608 123.904 3.4049 120.845C1.98373 117.785 1.27314 114.509 1.27314 111.015C1.27314 107.502 1.98373 104.215 3.4049 101.156C4.84582 98.0765 6.8098 95.3822 9.29686 93.0727C11.8037 90.7436 14.6855 88.9276 17.9424 87.6249C21.219 86.3024 24.6929 85.6412 28.3643 85.6412C31.3448 85.6412 34.1971 86.0557 36.921 86.8847C39.6449 87.7137 41.9543 88.7895 43.8492 90.112L38.9935 99.8233C37.7895 98.9154 36.3091 98.1949 34.5524 97.662C32.7956 97.129 30.9797 96.8625 29.1045 96.8625C26.9333 96.8625 24.9101 97.2178 23.0349 97.9284C21.1597 98.639 19.5116 99.6358 18.0904 100.919C16.689 102.202 15.5935 103.702 14.8039 105.419C14.0341 107.117 13.6492 108.972 13.6492 110.985C13.6492 112.999 14.0341 114.864 14.8039 116.581C15.5935 118.279 16.689 119.769 18.0904 121.052C19.5116 122.335 21.1597 123.332 23.0349 124.043C24.9101 124.753 26.9333 125.108 29.1045 125.108C30.9797 125.108 32.7956 124.842 34.5524 124.309C36.3091 123.776 37.7895 123.056 38.9935 122.148L43.8492 131.859C42.0333 133.122 39.7732 134.188 37.069 135.057C34.3648 135.905 31.483 136.33 28.4235 136.33ZM62.0271 136.33C59.2439 136.33 56.7174 135.639 54.4474 134.257C52.1775 132.856 50.3714 130.941 49.0292 128.513C47.687 126.066 47.0159 123.283 47.0159 120.164C47.0159 117.144 47.6574 114.43 48.9404 112.022C50.2234 109.594 51.99 107.669 54.2402 106.248C56.4904 104.827 59.086 104.116 62.0271 104.116C63.9417 104.116 65.7576 104.442 67.4749 105.094C69.2119 105.745 70.6824 106.663 71.8865 107.847V105.064H82.6933V135.382H71.8865V132.244C70.4653 133.586 68.9257 134.603 67.2676 135.294C65.6293 135.984 63.8825 136.33 62.0271 136.33ZM65.2839 127.181C66.6261 127.181 67.8104 126.885 68.8369 126.293C69.8633 125.681 70.6627 124.852 71.2351 123.806C71.8075 122.76 72.0937 121.565 72.0937 120.223C72.0937 118.881 71.7976 117.687 71.2055 116.641C70.6331 115.594 69.8337 114.775 68.8072 114.183C67.7808 113.571 66.6064 113.265 65.2839 113.265C63.9812 113.265 62.8067 113.571 61.7606 114.183C60.7342 114.775 59.915 115.594 59.3031 116.641C58.711 117.687 58.4149 118.881 58.4149 120.223C58.4149 121.546 58.711 122.74 59.3031 123.806C59.8953 124.852 60.7046 125.681 61.731 126.293C62.7771 126.885 63.9614 127.181 65.2839 127.181ZM92.6411 135.382V84.4569H103.448V135.382H92.6411ZM127.643 136.33C125.314 136.33 123.113 135.915 121.04 135.086C118.987 134.257 117.171 133.103 115.592 131.622C114.013 130.142 112.77 128.434 111.862 126.5C110.954 124.546 110.5 122.463 110.5 120.253C110.5 118.141 110.924 116.127 111.773 114.213C112.641 112.278 113.845 110.551 115.385 109.031C116.925 107.512 118.731 106.317 120.803 105.449C122.876 104.561 125.136 104.116 127.583 104.116C129.538 104.116 131.413 104.393 133.209 104.945C135.025 105.478 136.456 106.15 137.502 106.959L133.92 114.242C132.696 113.374 131.156 112.94 129.301 112.94C127.662 112.94 126.291 113.305 125.185 114.035C124.08 114.765 123.251 115.693 122.698 116.818C122.165 117.943 121.899 119.078 121.899 120.223C121.899 121.546 122.205 122.76 122.817 123.865C123.428 124.97 124.297 125.858 125.422 126.53C126.547 127.181 127.86 127.507 129.36 127.507C130.307 127.507 131.176 127.388 131.965 127.151C132.755 126.895 133.406 126.579 133.92 126.204L137.502 133.487C136.436 134.277 135.015 134.948 133.239 135.501C131.462 136.053 129.597 136.33 127.643 136.33ZM159.89 136.33C154.008 136.33 149.764 135.215 147.159 132.984C144.553 130.754 143.251 127.132 143.251 122.118V105.064H154.057V119.453C154.057 122.434 154.492 124.536 155.36 125.76C156.248 126.964 157.758 127.566 159.89 127.566C162.042 127.566 163.552 126.964 164.42 125.76C165.289 124.536 165.723 122.434 165.723 119.453V105.064H176.53V122.118C176.53 127.132 175.227 130.754 172.622 132.984C170.016 135.215 165.772 136.33 159.89 136.33ZM196.914 136.33C193.638 136.33 191.082 135.303 189.246 133.251C187.41 131.178 186.492 128.286 186.492 124.575V113.265H182.081V105.064H186.492V93.6945H197.299V105.064H203.635V113.265H197.299V123.776C197.299 124.724 197.487 125.444 197.862 125.937C198.257 126.431 198.829 126.678 199.579 126.678C200.448 126.678 201.306 126.362 202.155 125.73L204.849 134.405C203.704 134.997 202.431 135.461 201.03 135.797C199.628 136.152 198.257 136.33 196.914 136.33Z" fill="white"/>
</svg>
